<svg width="14" height="11" viewBox="0 0 14 11" fill="none" xmlns="http://www.w3.org/2000/svg">
<path d="M11.3333 0H2C1.46957 0 0.960859 0.210714 0.585787 0.585786C0.210714 0.960859 0 1.46957 0 2V8.66667C0 9.1971 0.210714 9.70581 0.585787 10.0809C0.960859 10.456 1.46957 10.6667 2 10.6667H11.3333C11.8638 10.6667 12.3725 10.456 12.7475 10.0809C13.1226 9.70581 13.3333 9.1971 13.3333 8.66667V2C13.3333 1.46957 13.1226 0.960859 12.7475 0.585786C12.3725 0.210714 11.8638 0 11.3333 0ZM11.06 1.33333L7.14 5.25333C7.07802 5.31582 7.00429 5.36541 6.92305 5.39926C6.84181 5.43311 6.75467 5.45053 6.66667 5.45053C6.57866 5.45053 6.49152 5.43311 6.41028 5.39926C6.32904 5.36541 6.25531 5.31582 6.19333 5.25333L2.27333 1.33333H11.06ZM12 8.66667C12 8.84348 11.9298 9.01305 11.8047 9.13807C11.6797 9.2631 11.5101 9.33333 11.3333 9.33333H2C1.82319 9.33333 1.65362 9.2631 1.5286 9.13807C1.40357 9.01305 1.33333 8.84348 1.33333 8.66667V2.27333L5.25333 6.19333C5.62833 6.56787 6.13666 6.77824 6.66667 6.77824C7.19667 6.77824 7.705 6.56787 8.08 6.19333L12 2.27333V8.66667Z" fill="#C1BEDA"/>
</svg>
