<svg width="14" height="14" viewBox="0 0 14 14" fill="none" xmlns="http://www.w3.org/2000/svg">
<path d="M10.2667 13.3334C7.54486 13.3299 4.93554 12.2471 3.01093 10.3225C1.08632 8.39787 0.00352795 5.78855 0 3.06674C0 2.25341 0.323094 1.47339 0.898206 0.898282C1.47332 0.323171 2.25334 7.61965e-05 3.06667 7.61965e-05C3.23889 -0.00123567 3.41083 0.0143951 3.58 0.0467428C3.74354 0.0709431 3.90431 0.111136 4.06 0.166743C4.1695 0.205162 4.26707 0.271498 4.34307 0.359191C4.41907 0.446884 4.47087 0.552895 4.49333 0.666743L5.40667 4.66674C5.43128 4.77532 5.42832 4.88833 5.39804 4.99546C5.36777 5.1026 5.31114 5.20045 5.23333 5.28008C5.14667 5.37341 5.14 5.38008 4.32 5.80674C4.97666 7.24731 6.1288 8.40418 7.56667 9.06674C8 8.24008 8.00667 8.23341 8.1 8.14674C8.17963 8.06894 8.27748 8.01231 8.38461 7.98203C8.49175 7.95176 8.60476 7.94879 8.71333 7.97341L12.7133 8.88674C12.8235 8.91231 12.9254 8.9655 13.0094 9.04131C13.0934 9.11712 13.1567 9.21305 13.1933 9.32008C13.2496 9.47831 13.292 9.64115 13.32 9.80674C13.3468 9.97429 13.3602 10.1437 13.36 10.3134C13.3477 11.1233 13.0155 11.8954 12.436 12.4612C11.8564 13.027 11.0766 13.3405 10.2667 13.3334ZM3.06667 1.33341C2.6075 1.33517 2.16764 1.51835 1.84295 1.84303C1.51827 2.16771 1.33509 2.60757 1.33333 3.06674C1.3351 5.43547 2.27685 7.70667 3.9518 9.38161C5.62674 11.0566 7.89794 11.9983 10.2667 12.0001C10.7258 11.9983 11.1657 11.8151 11.4904 11.4905C11.8151 11.1658 11.9982 10.7259 12 10.2667V10.0467L8.90667 9.33341L8.71333 9.70008C8.41333 10.2801 8.19333 10.7001 7.63333 10.4734C6.52859 10.078 5.5258 9.44143 4.69782 8.61C3.86985 7.77856 3.23748 6.77313 2.84667 5.66674C2.60667 5.14674 3.06 4.90674 3.63333 4.60674L4 4.42674L3.28667 1.33341H3.06667Z" fill="#C1BEDA"/>
</svg>
