<svg width="64" height="64" viewBox="0 0 64 64" fill="none" xmlns="http://www.w3.org/2000/svg">
<path opacity="0.3" d="M12.1514 17.5081C12.7641 20.2346 14.694 22.4096 16.5688 24.4988L31.8858 41.3597C32.6823 42.2419 33.7728 43.1977 34.9002 42.8424C35.9111 42.5177 36.3216 41.2249 36.0642 40.1956C35.7115 39.1911 35.1474 38.2739 34.41 37.5059C30.8871 33.1498 28.6937 27.9114 26.0653 22.9794C24.068 19.2175 21.7276 15.5414 18.4926 12.717C16.7404 11.1976 15.3312 10.0641 13.4687 12.1043C12.8484 12.8432 12.4069 13.7151 12.1785 14.6523C11.95 15.5895 11.9408 16.5668 12.1514 17.5081Z" fill="#878593"/>
<path d="M18.5479 26.2651L17.579 25.495C17.2188 25.2087 16.6946 25.2686 16.4083 25.6288C16.1219 25.9891 16.1818 26.5133 16.5421 26.7996L17.5109 27.5697C17.8712 27.856 18.3953 27.7961 18.6817 27.4359C18.968 27.0756 18.9081 26.5515 18.5479 26.2651Z" stroke="white" stroke-width="0.75" stroke-linecap="round" stroke-linejoin="round"/>
<path d="M46.6209 40.4472C46.4432 39.5098 46.2043 38.4621 45.3955 37.9413C44.7327 37.6199 43.999 37.4723 43.2634 37.5125C41.8933 37.4399 40.5646 37.018 39.4035 36.2871C38.7102 35.806 38.064 35.2604 37.4736 34.6574L33.8894 31.2203C33.6945 31.0071 33.5451 30.7564 33.4503 30.4836C33.3555 30.2108 33.3173 29.9215 33.338 29.6334C33.4321 29.1861 33.6345 28.7687 33.9275 28.4178C34.2205 28.067 34.5951 27.7933 35.0185 27.621C35.4419 27.4486 35.9011 27.3827 36.3558 27.4292C36.8106 27.4756 37.247 27.6329 37.6268 27.8873C38.3865 28.4019 39.0727 29.3393 39.9672 29.1127C40.2184 27.8873 40.5064 26.4843 40.7575 25.2283C39.6022 23.0941 38.2938 21.0465 36.8425 19.1015C36.7699 18.9842 36.6688 18.8872 36.5485 18.8197C36.3681 18.7556 36.1712 18.7556 35.9909 18.8197C34.6859 19.175 28.1241 20.7496 27.5176 16.9142C29.8948 16.7672 33.4115 13.5077 35.7887 13.183C36.368 13.1338 36.9511 13.2096 37.4987 13.4051C38.0462 13.6006 38.5453 13.9114 38.9624 14.3165C39.7843 15.1378 40.4931 16.0649 41.07 17.0735C43.5207 20.9028 47.4051 23.96 49.1819 28.0221C50.3871 30.9534 51.3302 33.9858 52.0002 37.0836" stroke="white" stroke-width="0.75" stroke-linecap="round" stroke-linejoin="round"/>
<path d="M37.7986 20.6328C37.288 20.7717 36.7836 20.933 36.2852 21.1168C35.6918 21.3085 35.1347 21.5985 34.6371 21.9746C34.3891 22.1646 34.1816 22.4024 34.0269 22.6738C33.8723 22.9453 33.7735 23.245 33.7365 23.5553C33.7252 24.0039 33.7979 24.4507 33.9509 24.8725C34.1722 25.7394 34.5278 26.5663 35.0047 27.3233" stroke="white" stroke-width="0.75" stroke-linecap="round" stroke-linejoin="round"/>
<path d="M39.7038 23.8188C39.3648 24.0476 39.034 24.2886 38.7113 24.5418C38.5788 24.6236 38.4824 24.7529 38.4417 24.9033C38.4361 25.0116 38.4594 25.1194 38.5091 25.2158C38.7419 25.7794 39.0483 26.3124 39.2382 26.8884C39.4614 27.4616 39.4744 28.0954 39.275 28.6774" stroke="white" stroke-width="0.75" stroke-linecap="round" stroke-linejoin="round"/>
<path d="M19.2036 24.3459L12.8318 14.929C12.7502 14.8122 12.6928 14.6802 12.6631 14.5408C12.6334 14.4015 12.6319 14.2576 12.6587 14.1177C12.6856 13.9777 12.7402 13.8446 12.8194 13.7261C12.8986 13.6076 13.0007 13.5063 13.1197 13.4279L15.2947 11.9514C15.4112 11.8695 15.5428 11.8118 15.6819 11.7816C15.8211 11.7514 15.9648 11.7494 16.1047 11.7756C16.2446 11.8019 16.3779 11.8559 16.4965 11.9345C16.6152 12.0131 16.717 12.1147 16.7958 12.2332L35.6602 39.9937C35.7391 40.1095 35.7945 40.2397 35.8231 40.377C35.8517 40.5142 35.8529 40.6557 35.8268 40.7935C35.8006 40.9312 35.7475 41.0624 35.6706 41.1796C35.5936 41.2967 35.4943 41.3976 35.3783 41.4763L33.479 42.7385" stroke="white" stroke-width="0.75" stroke-linecap="round" stroke-linejoin="round"/>
<path d="M24.1474 39.3076C21.5007 36.4341 21.5374 31.6062 18.4495 29.2168C17.7388 28.6715 16.9117 28.2917 16.2255 27.7096C15.8633 27.4455 15.577 27.0908 15.3952 26.6811C15.2135 26.2714 15.1427 25.821 15.1901 25.3753C15.429 24.2357 16.8198 23.6537 17.9655 23.8742C19.0913 24.197 20.1148 24.8047 20.937 25.6388L24.8888 29.0207C26.243 30.1083 27.494 31.3183 28.6261 32.6355C30.4962 34.796 31.9409 37.2905 32.8842 39.9877C33.4356 41.5439 33.8645 44.5644 32.9455 45.9307L32.0203 52.0023" stroke="white" stroke-width="0.75" stroke-linecap="round" stroke-linejoin="round"/>
<path d="M15.6741 19.126C15.619 20.2778 14.9757 22.318 15.6741 24.5114" stroke="white" stroke-width="0.75" stroke-linecap="round" stroke-linejoin="round"/>
<path d="M16.7588 28.1138C17.5491 30.4297 18.5662 33.6891 19.3565 36.0051C19.8618 37.6164 20.4928 39.1856 21.2436 40.6982C22.2974 42.6955 23.7801 44.4907 24.454 46.6473C25.0463 48.5748 24.9466 50.6487 24.1722 52.5106" stroke="white" stroke-width="0.75" stroke-linecap="round" stroke-linejoin="round"/>
</svg>
