<svg width="64" height="64" viewBox="0 0 64 64" fill="none" xmlns="http://www.w3.org/2000/svg">
<path opacity="0.2" d="M33.6808 44.0797C35.7992 44.5189 38.2936 42.4651 40.5749 42.2239C50.5462 40.5722 51.8561 38.3514 51.2857 35.778C50.7468 33.5139 45.7329 31.2437 45.2002 31.2437C41.2643 31.2437 34.9844 34.4109 31.13 34.8006C29.4081 34.9212 27.7006 35.1945 26.0284 35.6172C25.1403 35.841 24.3166 36.2644 23.6217 36.8544C22.9323 37.5225 23.0326 37.8132 24.0667 38.3267C26.1224 39.3226 32.5715 43.8755 33.6808 44.0797Z" fill="#9F9EA9"/>
<path opacity="0.2" d="M22.4125 15.2528C21.0964 15.7477 19.6987 16.4034 19.0845 17.653C18.2823 19.2799 19.1472 21.2471 20.338 22.6018C21.5288 23.9566 23.0643 25.0762 23.9605 26.6599C24.5121 27.6434 24.863 28.8497 25.8407 29.3941C26.2807 29.6025 26.7575 29.7243 27.2446 29.7529C33.606 30.4705 39.842 28.1693 45.7959 25.9114C47.6761 25.2 49.8008 24.2473 50.3648 22.3296C50.5655 21.5145 50.5482 20.6618 50.3147 19.8552C49.8624 18.2222 49.0187 16.7205 47.8548 15.477C46.6909 14.2335 45.241 13.2846 43.6274 12.7104C40.381 11.5226 36.9527 12.0918 33.5997 12.5062C29.7724 12.9751 26.0163 13.8973 22.4125 15.2528Z" fill="#B7B6BE"/>
<path d="M27.8522 24.2842C29.958 25.5214 32.1954 27.0556 32.7094 29.4125C32.8331 29.8252 32.7881 30.2693 32.584 30.6497C32.3272 30.9674 31.9658 31.1863 31.5624 31.2683C28.692 32.091 25.6586 31.0023 22.8759 29.9259C17.9122 28.0082 14.603 26.9009 9.83984 24.5317C15.236 24.5317 15.1169 17.7827 15.1169 17.7827C15.1169 17.7827 18.47 19.4591 19.3537 19.8612C22.2617 21.2221 25.0945 22.6965 27.8522 24.2842Z" stroke="white" stroke-width="0.75" stroke-linecap="round" stroke-linejoin="round"/>
<path d="M18.3262 23.2144L23.34 25.9238" stroke="white" stroke-width="0.75" stroke-linecap="round" stroke-linejoin="round"/>
<path d="M18.7832 24.8286C20.5443 25.9978 23.5652 26.9937 25.4078 27.9216" stroke="white" stroke-width="0.75" stroke-linecap="round" stroke-linejoin="round"/>
<path d="M15.0728 17.6589C18.8332 16.4217 34.1631 12.6606 35.8552 12.1719C39.5342 14.3865 43.5077 16.4279 47.1866 18.6363C48.0143 19.0704 48.757 19.6464 49.3802 20.3374C49.9584 21.1094 50.2378 22.0602 50.1676 23.0178C50.0975 23.9753 49.6826 24.8766 48.9978 25.5584C48.0451 26.3161 46.9275 26.8455 45.7326 27.105C41.3454 28.4226 35.9242 29.9876 31.5433 31.3053" stroke="white" stroke-width="0.75" stroke-linecap="round" stroke-linejoin="round"/>
<path d="M24.543 37.1018C25.5583 37.4544 27.5325 38.339 28.5729 38.5926C33.217 40.4485 35.6111 36.8729 32.7657 34.0335C31.8068 33.0747 29.4566 32.0416 27.0938 31.3179" stroke="white" stroke-width="0.75" stroke-linecap="round" stroke-linejoin="round"/>
<path d="M11.1308 25.1626C11.9017 27.0184 11.0493 30.9713 11.0493 30.9713L20.137 35.2335" stroke="white" stroke-width="0.75" stroke-linecap="round" stroke-linejoin="round"/>
<path d="M15.5933 30.1982C16.759 30.9468 22.7568 32.4438 24.0542 32.9325" stroke="white" stroke-width="0.75" stroke-linecap="round" stroke-linejoin="round"/>
<path d="M31.6943 39.0569C37.5982 37.0712 44.5737 35.5061 50.4963 33.5204C53.2916 32.71 53.3104 29.085 53.0597 27.6869C52.9291 26.8819 52.5413 26.1391 51.9527 25.5671C51.3641 24.9951 50.6057 24.6237 49.7881 24.5073" stroke="white" stroke-width="0.75" stroke-linecap="round" stroke-linejoin="round"/>
<path d="M22.6631 42.6815C24.5462 43.7598 26.5218 44.6727 28.5669 45.4095C33.211 47.2653 35.6051 43.6898 32.7598 40.8504C31.8009 39.8916 29.4506 38.8585 27.0878 38.1348" stroke="white" stroke-width="0.75" stroke-linecap="round" stroke-linejoin="round"/>
<path d="M12.967 31.8745C14.5339 36.3037 11.043 37.7884 11.043 37.7884L16.9781 40.5721" stroke="white" stroke-width="0.75" stroke-linecap="round" stroke-linejoin="round"/>
<path d="M31.6943 45.8733C37.5982 43.8876 44.5737 42.3226 50.4963 40.3369C53.2916 39.5265 53.3104 35.9015 53.0597 34.5034C52.9432 33.848 52.6632 33.2314 52.2449 32.7095" stroke="white" stroke-width="0.75" stroke-linecap="round" stroke-linejoin="round"/>
<path d="M9 41.5685C10.9742 41.7665 13.4373 42.6511 15.6308 41.7417C17.4484 40.9128 17.8683 37.7765 19.1531 36.2671C21.4219 33.0998 24.5179 35.1845 26.4733 33.6689C27.5827 35.6547 24.5305 36.9042 22.9135 38.2775C20.3313 42.2985 23.9789 43.7089 24.9629 44.6059" stroke="white" stroke-width="0.75" stroke-linecap="round" stroke-linejoin="round"/>
<path d="M9.20703 50.1914C11.6701 50.2903 14.1081 49.7212 16.5774 49.6223C20.3002 49.4738 25.9283 51.3358 29.6574 51.3482C33.3864 51.3605 35.4296 47.3705 37.2784 44.1724" stroke="white" stroke-width="0.75" stroke-linecap="round" stroke-linejoin="round"/>
<path d="M48.3276 41.1663L52.9529 41.7169C53.4435 41.8137 53.9503 41.7946 54.432 41.6612C54.7624 41.5098 55.0536 41.2864 55.2837 41.0078C55.5139 40.7292 55.677 40.4027 55.7607 40.0528C56.5692 37.4423 54.9835 34.7205 54.8394 32.011C54.8572 31.3886 54.8047 30.7661 54.6827 30.1552C54.6114 29.8541 54.4563 29.5787 54.2348 29.3601C54.0133 29.1414 53.7343 28.9883 53.4292 28.918" stroke="white" stroke-width="0.75" stroke-linecap="round" stroke-linejoin="round"/>
</svg>
