<svg width="64" height="64" viewBox="0 0 64 64" fill="none" xmlns="http://www.w3.org/2000/svg">
<g clip-path="url(#clip0_108_1285)">
<path opacity="0.25" d="M52.8714 32.9155H39.7612V46.0257H52.8714V32.9155Z" fill="#CFCED4"/>
<path opacity="0.25" d="M25.3448 14.0474C23.2518 15.5728 21.8456 17.8628 21.4319 20.4194C21.0182 22.976 21.6304 25.5926 23.1355 27.7003C24.6406 29.8079 26.9168 31.2362 29.4693 31.6747C32.0218 32.1132 34.6442 31.5263 36.7663 30.0418L25.3448 14.0474Z" fill="#B7B6BE"/>
<path opacity="0.25" d="M37.0075 22.9989C39.5417 22.9989 41.5961 20.9445 41.5961 18.4103C41.5961 15.8761 39.5417 13.8218 37.0075 13.8218C34.4733 13.8218 32.4189 15.8761 32.4189 18.4103C32.4189 20.9445 34.4733 22.9989 37.0075 22.9989Z" fill="#9F9EA9"/>
<path d="M58.4666 13.4233C56.605 13.7064 49.7982 9.77863 48.0519 8.90287C47.2003 8.39918 46.2473 8.09109 45.2621 8.00089C43.3899 7.95894 41.8429 9.40106 40.642 10.8379C39.4411 12.2748 38.2402 13.89 36.4468 14.4458C37.2386 15.5576 38.8014 15.8303 40.1176 15.4947C42.5823 14.8234 44.1136 12.0336 45.3617 11.9654C45.991 11.9339 47.2915 15.1118 51.083 15.825C51.5694 16.5327 51.9444 17.3109 52.1947 18.1324C52.4913 18.9768 52.4423 19.9041 52.0584 20.7125C51.3976 21.9501 49.8087 22.4378 48.419 22.2543C47.0293 22.0707 45.7969 21.3575 44.5279 20.7177C43.2588 20.078 41.9583 19.4644 40.5581 19.5378C40.2181 19.5373 39.8814 19.6058 39.5687 19.7392C39.2559 19.8726 38.9734 20.0682 38.7384 20.314C38.5118 20.5669 38.3865 20.8946 38.3865 21.2343C38.3865 21.5739 38.5118 21.9017 38.7384 22.1546C39.3572 22.7105 40.3117 22.3958 41.1455 22.5794C41.5509 22.6908 41.9353 22.8679 42.2834 23.1038C44.1084 24.2155 45.9543 27.6452 50.0289 27.7133C54.1035 27.7815 57.1661 25.2748 59.0277 24.7295C60.8894 24.1841 63.8837 24.7295 63.8837 24.7295" stroke="white" stroke-width="0.75" stroke-linecap="round" stroke-linejoin="round"/>
<path d="M48.1831 14.5508C47.1029 15.1748 44.9633 16.6484 44.8584 18.0119C44.8584 19.8735 47.2077 20.98 48.0048 21.6145C48.3768 21.9564 48.8425 22.1792 49.3421 22.2543C49.6829 22.2628 50.015 22.1456 50.2751 21.9252C50.5352 21.7047 50.7052 21.3963 50.7527 21.0587C50.7527 19.4854 48.7285 18.4366 48.8229 17.7444C48.9173 17.0522 50.3175 16.2708 51.2194 16.0191" stroke="white" stroke-width="0.75" stroke-linecap="round" stroke-linejoin="round"/>
<path d="M50.7319 20.5391C50.8872 20.9146 51.0713 21.2775 51.2826 21.6246" stroke="white" stroke-width="0.75" stroke-linecap="round" stroke-linejoin="round"/>
<path d="M40.8565 20.8018H39.6137C39.2777 20.8018 39.0054 21.0741 39.0054 21.4101V21.8558C39.0054 22.1918 39.2777 22.4641 39.6137 22.4641H40.8565C41.1925 22.4641 41.4648 22.1918 41.4648 21.8558V21.4101C41.4648 21.0741 41.1925 20.8018 40.8565 20.8018Z" stroke="white" stroke-width="0.75" stroke-linecap="round" stroke-linejoin="round"/>
<path d="M19.6687 15.7216L18.6107 15.6685C18.2173 15.6488 17.8824 15.9517 17.8627 16.3451C17.843 16.7385 18.1459 17.0734 18.5393 17.0931L19.5973 17.1462C19.9907 17.1659 20.3256 16.863 20.3453 16.4696C20.365 16.0762 20.0621 15.7413 19.6687 15.7216Z" stroke="white" stroke-width="0.75" stroke-linecap="round" stroke-linejoin="round"/>
<path d="M40.9696 46.7707L39.9454 47.0411C39.5646 47.1416 39.3374 47.5319 39.4379 47.9127C39.5385 48.2935 39.9287 48.5208 40.3095 48.4202L41.3337 48.1498C41.7146 48.0492 41.9418 47.659 41.8413 47.2782C41.7407 46.8973 41.3505 46.6701 40.9696 46.7707Z" stroke="white" stroke-width="0.75" stroke-linecap="round" stroke-linejoin="round"/>
<path d="M12.309 16.937C17.1283 17.9858 23.6152 20.6708 27.9625 21.6567C26.7039 24.5619 16.1529 21.0798 14.3279 20.697C18.455 21.6619 20.9302 22.6216 20.6208 23.7543C20.044 26.0145 16.7192 24.6458 14.1549 24.1791C17.2384 25.1545 20.0964 25.3275 19.572 26.9007C19.0476 28.4739 16.4623 27.8184 14.2335 27.0843C16.0585 27.7083 16.95 28.4739 16.4255 29.5228C15.9011 30.9649 8.50701 29.2239 4.88861 26.9007C3.97614 26.3134 2.74903 23.9745 0.693359 23.7543" stroke="white" stroke-width="0.75" stroke-linecap="round" stroke-linejoin="round"/>
<path d="M14.6314 17.5605C15.4914 17.8385 18.1135 18.473 19.7339 17.9171C20.4575 17.6497 21.3962 16.4855 20.4575 15.788C20.1062 15.4105 19.1885 15.6412 18.0191 15.5835C17.1381 15.6779 13.9706 12.9929 8.98354 14.2043C7.41032 14.4508 5.89479 15.1115 4.32681 15.4839C4.37925 15.573 -0.0519788 13.638 0.000461815 13.7271" stroke="white" stroke-width="0.75" stroke-linecap="round" stroke-linejoin="round"/>
<path d="M22.4241 52.5544C21.7948 48.8836 24.4955 45.4907 24.9727 41.8041C24.9836 41.1683 25.1415 40.5437 25.4342 39.9792C25.7554 39.5752 26.1667 39.2519 26.6351 39.0352C30.3873 36.9516 34.2569 35.0869 38.2245 33.4503C38.9429 33.1514 39.7977 32.863 40.4742 33.2091C42.0474 33.9223 41.1087 35.4116 40.3431 35.5427" stroke="white" stroke-width="0.75" stroke-linecap="round" stroke-linejoin="round"/>
<path d="M29.1147 40.4352C30.5982 39.9437 32.0242 39.2932 33.3677 38.4949C36.046 37.092 38.8565 35.9572 41.7582 35.1073C42.093 34.983 42.4512 34.9346 42.807 34.9657C43.0552 35.0079 43.2852 35.1233 43.4674 35.2971C43.6496 35.4709 43.7757 35.6951 43.8296 35.9411C43.8269 36.2767 43.7503 36.6076 43.6053 36.9103C43.4603 37.213 43.2504 37.4801 42.9905 37.6926" stroke="white" stroke-width="0.75" stroke-linecap="round" stroke-linejoin="round"/>
<path d="M30.9453 42.5802C35.2385 40.6434 39.6085 38.8832 44.0555 37.2995C45.6287 36.7174 46.2999 38.8098 45.314 39.6908C43.8405 41.0018 40.9667 41.6206 38.6698 42.8057C37.2697 43.5294 33.8348 45.8788 33.6984 46.6391C33.6715 46.926 33.7402 47.2138 33.8939 47.4576C34.0475 47.7013 34.2775 47.8874 34.548 47.9869C35.099 48.1721 35.6981 48.1535 36.2366 47.9344C37.0718 47.5726 37.8678 47.1262 38.6121 46.6024C39.3646 46.0775 40.2645 45.8057 41.1817 45.8263C42.0889 45.9102 42.9857 46.6339 42.9804 47.5411C42.9752 48.4483 40.5419 48.9256 39.7658 49.4342C36.4201 51.6053 35.0934 56.2515 31.1131 55.9893" stroke="white" stroke-width="0.75" stroke-linecap="round" stroke-linejoin="round"/>
<path d="M26.6406 39.0349C28.8956 37.2834 31.3865 35.5581 33.6467 33.7909C34.1477 33.3503 34.7434 33.0309 35.3877 32.8574C35.7123 32.7758 36.055 32.806 36.3604 32.943C36.6658 33.08 36.9162 33.3159 37.0711 33.6126" stroke="white" stroke-width="0.75" stroke-linecap="round" stroke-linejoin="round"/>
</g>
<defs>
<clipPath id="clip0_108_1285">
<rect width="64" height="64" fill="white"/>
</clipPath>
</defs>
</svg>
