<svg width="64" height="64" viewBox="0 0 64 64" fill="none" xmlns="http://www.w3.org/2000/svg">
<path opacity="0.2" d="M19.9131 25.3965C18.2201 26.3999 16.7898 27.7916 15.74 29.4567C15.1439 30.5081 14.7967 31.6822 14.7252 32.8888C14.6538 34.0955 14.86 35.3024 15.3279 36.4168C15.7959 37.5312 16.5131 38.5234 17.4244 39.3169C18.3358 40.1105 19.4169 40.6843 20.5847 40.9942C21.4368 41.1348 22.2679 41.3818 23.0587 41.7293C24.2985 42.4242 24.907 43.837 25.8082 44.9281C28.0181 47.5928 31.864 48.2131 35.308 48.0178C36.2086 48.0083 37.1019 47.8552 37.9542 47.5641C38.8721 47.159 39.722 46.6147 40.4741 45.9503C42.1961 44.5606 44.0042 43.0789 44.9341 41.0689C46.2888 38.1055 45.4737 34.5794 44.0387 31.6505C39.3663 22.1173 28.5978 19.7225 19.9131 25.3965Z" fill="#B7B6BE"/>
<path d="M38.4995 20.5897C37.985 20.2521 37.3916 20.0542 36.7775 20.0154C31.2498 19.9006 28.7414 23.4325 27.8115 26.8035C26.916 29.9908 28.3855 33.873 30.8939 35.9118C32.4358 37.1099 34.3073 37.8071 36.257 37.9098C38.2066 38.0124 40.1409 37.5156 41.8001 36.4861C45.0088 34.4244 47.2302 29.5946 44.4175 25.8617" stroke="white" stroke-width="0.75" stroke-linecap="round" stroke-linejoin="round"/>
<path d="M41.6223 20.5609C41.1563 20.3224 40.6465 20.1817 40.1241 20.1475C37.3057 20.7218 34.539 24.2766 37.0187 27.1883C37.4193 27.6231 37.9161 27.9581 38.4693 28.1665C39.0224 28.375 39.6167 28.451 40.2045 28.3885C41.2862 28.2419 42.3037 27.7896 43.1377 27.0849C43.9413 26.4589 44.6875 25.6377 44.6932 24.5752C44.6522 23.8043 44.3599 23.068 43.8609 22.4791" stroke="white" stroke-width="0.75" stroke-linecap="round" stroke-linejoin="round"/>
<path d="M36.7599 22.5137C36.1125 23.1987 35.5656 23.9721 35.1354 24.8108C34.8254 25.3313 34.6664 25.9279 34.6762 26.5337C34.7175 26.8658 34.8105 27.1894 34.9517 27.4928C35.2241 28.2523 35.723 28.9098 36.381 29.3764C36.9415 29.691 37.5753 29.8515 38.2178 29.8416C39.5313 29.8568 40.8199 29.4833 41.9219 28.7681C43.0238 28.0528 43.8899 27.0277 44.4114 25.8216" stroke="white" stroke-width="0.75" stroke-linecap="round" stroke-linejoin="round"/>
<path d="M42.5693 23.2546C45.0088 20.9575 49.2565 15.7889 49.2565 15.7889C50.1979 14.6403 50.5308 13.8018 50.0658 13.262C49.8535 13.015 48.958 12.3833 48.0453 13.6066L43.327 18.7752C42.3847 19.7293 41.5458 20.7803 40.8243 21.9108C40.6332 22.1488 40.5257 22.443 40.5185 22.7482C40.5112 23.0534 40.6046 23.3524 40.7841 23.5992C41.2548 24.1792 42.3512 23.4556 42.5693 23.2546Z" stroke="white" stroke-width="0.75" stroke-linecap="round" stroke-linejoin="round"/>
<path d="M44.6186 24.495C47.5403 25.6953 51.2713 23.3866 52.6547 21.8935C53.7224 20.7449 54.8474 19.4585 54.9852 17.8735C55.1689 15.7773 53.6248 13.8534 52.1151 12.2914C50.6055 10.7293 48.5965 8.96047 46.375 9.00067C44.5669 9.03513 43.0688 10.2009 41.7141 11.2978C40.7211 12.1133 37.3114 15.7428 39.1196 20.4865" stroke="white" stroke-width="0.75" stroke-linecap="round" stroke-linejoin="round"/>
<path d="M44.4346 17.4946C44.9651 17.7875 45.4618 18.138 45.9155 18.5398" stroke="white" stroke-width="0.75" stroke-linecap="round" stroke-linejoin="round"/>
<path d="M45.4048 16.6274C45.7977 16.8361 46.1436 17.1235 46.4208 17.4716" stroke="white" stroke-width="0.75" stroke-linecap="round" stroke-linejoin="round"/>
<path d="M46.6216 15.8633C46.9376 16.0988 47.2386 16.3539 47.5228 16.6271" stroke="white" stroke-width="0.75" stroke-linecap="round" stroke-linejoin="round"/>
<path d="M19.3793 53.738C19.5056 54.2376 19.6835 54.8119 20.16 55.0072C20.5185 55.1081 20.9005 55.0859 21.2448 54.944L36.3528 50.5105C36.6512 50.4243 37.0014 50.2923 37.0875 49.9936C37.1225 49.8101 37.1026 49.6203 37.0301 49.448C34.1005 40.1889 30.651 31.1026 26.6979 22.2324C26.784 22.4334 17.4105 26.5109 16.5494 26.8669C13.9549 27.9524 10 29.5776 10 29.5776C10 29.5776 17.5138 46.3526 19.3793 53.738Z" stroke="white" stroke-width="0.75" stroke-linecap="round" stroke-linejoin="round"/>
<path d="M15.9468 35.0335C18.5857 33.8447 21.3274 32.899 24.1379 32.208" stroke="white" stroke-width="0.75" stroke-linecap="round" stroke-linejoin="round"/>
<path d="M16.3657 38.0308C19.9972 36.1226 23.7474 34.4499 27.5933 33.0229" stroke="white" stroke-width="0.75" stroke-linecap="round" stroke-linejoin="round"/>
<path d="M20.3496 39.7824C20.1544 39.3632 20.7227 39.0129 21.1704 38.8865L25.0163 37.8413" stroke="white" stroke-width="0.75" stroke-linecap="round" stroke-linejoin="round"/>
<path d="M19.1782 43.9577L25.5842 41.7983" stroke="white" stroke-width="0.75" stroke-linecap="round" stroke-linejoin="round"/>
</svg>
