<svg width="16" height="14" viewBox="0 0 16 14" fill="none" xmlns="http://www.w3.org/2000/svg">
<path fill-rule="evenodd" clip-rule="evenodd" d="M12.2558 13.1861C12.4704 13.3381 12.7471 13.3761 12.9938 13.2828C13.2404 13.1888 13.4218 12.9781 13.4764 12.7228C14.0558 10.0001 15.4611 3.10877 15.9884 0.632099C16.0284 0.445432 15.9618 0.251432 15.8151 0.126766C15.6684 0.00209886 15.4651 -0.0339012 15.2838 0.0334321C12.4884 1.0681 3.87978 4.2981 0.36111 5.6001C0.137777 5.68277 -0.00755638 5.89743 -0.000223045 6.13277C0.00777696 6.36877 0.166444 6.57343 0.39511 6.6421C1.97311 7.1141 4.04444 7.77077 4.04444 7.77077C4.04444 7.77077 5.01244 10.6941 5.51711 12.1808C5.58044 12.3674 5.72644 12.5141 5.91911 12.5648C6.11111 12.6148 6.31644 12.5621 6.45978 12.4268C7.27044 11.6614 8.52378 10.4781 8.52378 10.4781C8.52378 10.4781 10.9051 12.2241 12.2558 13.1861ZM4.91578 7.40143L6.03511 11.0934L6.28378 8.75543C6.28378 8.75543 10.6084 4.85477 13.0738 2.63143C13.1458 2.5661 13.1558 2.45677 13.0958 2.3801C13.0364 2.30343 12.9271 2.28543 12.8451 2.33743C9.98778 4.1621 4.91578 7.40143 4.91578 7.40143Z" fill="#C1BEDA"/>
</svg>
