<svg width="16" height="16" viewBox="0 0 16 16" fill="none" xmlns="http://www.w3.org/2000/svg">
<path fill-rule="evenodd" clip-rule="evenodd" d="M8.18126 9.1635C8.18126 9.1635 8.46593 9.18883 8.61859 8.99883L8.91726 8.6235C9.06126 8.43683 9.40926 8.31816 9.74993 8.5075C10.2006 8.76216 10.7833 9.16216 11.1826 9.53483C11.4026 9.72016 11.4539 9.9935 11.3039 10.2822L11.3026 10.2882C11.1479 10.5602 10.9419 10.8155 10.6813 11.0535L10.6753 11.0575C10.3819 11.3022 10.0446 11.4442 9.68393 11.3268L9.67726 11.3175C9.02926 11.1342 7.47459 10.3415 6.48393 9.5515C4.86326 8.27283 3.71126 6.1635 3.39259 5.03283L3.38259 5.02616C3.26526 4.66416 3.40859 4.32683 3.65193 4.03416L3.65659 4.02883C3.89459 3.76816 4.14926 3.5615 4.42193 3.4075L4.42793 3.40616C4.71593 3.25616 4.98926 3.30683 5.17526 3.5275C5.41993 3.78016 5.87926 4.38816 6.20193 4.96016C6.39126 5.30016 6.27259 5.64883 6.08659 5.79216L5.71059 6.09083C5.52126 6.24416 5.54593 6.52883 5.54593 6.52883C5.54593 6.52883 6.10193 8.63283 8.18126 9.1635ZM11.4526 7.4195C11.3413 7.4195 11.2506 7.3295 11.2499 7.21816C11.2406 5.99816 10.8739 5.02616 10.1606 4.33016C9.44593 3.6335 8.54259 3.27616 7.47593 3.26883C7.36393 3.26816 7.27393 3.17683 7.27526 3.06483C7.27593 2.9535 7.36593 2.86416 7.47726 2.86416H7.47859C8.65326 2.87216 9.65059 3.26816 10.4433 4.04016C11.2366 4.81483 11.6446 5.8835 11.6546 7.2155C11.6553 7.32683 11.5659 7.41816 11.4539 7.4195H11.4526ZM10.3893 7.0035H10.3846C10.2726 7.00083 10.1839 6.90816 10.1866 6.79683C10.2026 6.10483 10.0046 5.54483 9.58259 5.08416C9.16259 4.62483 8.58593 4.37416 7.81926 4.31816C7.70793 4.3095 7.62393 4.21283 7.63193 4.1015C7.64059 3.99016 7.73726 3.90616 7.84859 3.91416C8.71126 3.9775 9.39526 4.2795 9.88126 4.81083C10.3699 5.34416 10.6093 6.0155 10.5913 6.8055C10.5886 6.9155 10.4986 7.0035 10.3893 7.0035ZM9.35059 6.6555C9.24326 6.6555 9.15393 6.5715 9.14859 6.46283C9.11459 5.77616 8.79059 5.44016 8.13059 5.40416C8.01859 5.39816 7.93326 5.30283 7.93926 5.1915C7.94526 5.0795 8.03993 4.99416 8.15193 5.00016C9.02393 5.04683 9.50793 5.54616 9.55259 6.44283C9.55859 6.55416 9.47259 6.6495 9.36059 6.65483L9.35059 6.6555ZM13.8953 8.96816C13.4919 12.2195 11.1139 12.4248 10.6753 12.5655C10.4886 12.6255 8.75393 13.0568 6.57393 12.9148C6.57393 12.9148 4.94859 14.8748 4.44126 15.3848C4.36193 15.4642 4.26926 15.4962 4.20659 15.4815C4.11926 15.4602 4.09526 15.3562 4.09659 15.2055L4.10993 12.5282V12.5275C0.93526 11.6455 1.11993 8.33083 1.15593 6.5955C1.19193 4.86016 1.51793 3.43816 2.48659 2.48216C4.22659 0.906162 7.81126 1.1415 7.81126 1.1415C10.8386 1.15483 12.2893 2.06616 12.6259 2.3715C13.7426 3.3275 14.3113 5.61616 13.8953 8.96816ZM13.4606 1.5595C13.0626 1.19416 11.4559 0.0274953 7.87726 0.0114953C7.87726 0.0114953 3.65726 -0.243171 1.59993 1.64483C0.454593 2.79016 0.0519268 4.4655 0.00926011 6.5435C-0.0327399 8.62216 -0.0880734 12.5155 3.66526 13.5715L3.66926 13.5728L3.66659 15.1835C3.66659 15.1835 3.64326 15.8362 4.07259 15.9695C4.59193 16.1302 4.89659 15.6348 5.39326 15.1002C5.66526 14.8068 6.04059 14.3762 6.32459 14.0468C8.89193 14.2615 10.8659 13.7688 11.0906 13.6962C11.6086 13.5275 14.5419 13.1522 15.0193 9.25816C15.5113 5.2435 14.7806 2.70483 13.4606 1.5595Z" fill="#C1BEDA"/>
</svg>
