<svg width="16" height="16" viewBox="0 0 16 16" fill="none" xmlns="http://www.w3.org/2000/svg">
<path fill-rule="evenodd" clip-rule="evenodd" d="M10.4559 0H5.54411C1.0614 0 0 1.0614 0 5.54411V10.4559C0 14.9386 1.0614 16 5.54411 16H10.4559C14.9386 16 16 14.9386 16 10.4559V5.54411C16 1.0614 14.9386 0 10.4559 0ZM12.7482 5.08128C13.0982 5.08128 13.1773 5.26194 13.0982 5.51035C12.9749 6.07967 11.9505 7.58985 11.6332 8.0576C11.573 8.14648 11.5382 8.19772 11.54 8.19772C11.4158 8.40097 11.3706 8.4913 11.54 8.71713C11.6012 8.80062 11.7311 8.92802 11.8794 9.07362C12.0321 9.22338 12.2043 9.39239 12.3417 9.5527C12.8385 10.1173 13.2224 10.5915 13.3241 10.919C13.4144 11.2464 13.2563 11.4158 12.9176 11.4158H11.7545C11.4463 11.4158 11.2875 11.2388 10.9489 10.8616C10.8037 10.6998 10.6255 10.5013 10.3883 10.2641C9.6995 9.59786 9.39463 9.50753 9.22526 9.50753C8.98814 9.50753 8.92039 9.56399 8.92039 9.90273V10.9528C8.92039 11.2351 8.83005 11.4045 8.08482 11.4045C6.85405 11.4045 5.48778 10.6593 4.52801 9.27041C3.0827 7.23795 2.6875 5.70231 2.6875 5.39744C2.6875 5.22807 2.74396 5.06999 3.0827 5.06999H4.25701C4.55059 5.06999 4.66351 5.19419 4.77642 5.52165C5.35228 7.18149 6.31206 8.63809 6.70726 8.63809C6.85405 8.63809 6.9218 8.57034 6.9218 8.19772V6.48142C6.89392 5.99358 6.7241 5.78103 6.59817 5.62341C6.52007 5.52566 6.45885 5.44904 6.45885 5.34098C6.45885 5.20548 6.57176 5.06999 6.75243 5.06999H8.58164C8.83005 5.06999 8.92039 5.20548 8.92039 5.49906V7.81381C8.92039 8.06222 9.02201 8.15256 9.10105 8.15256C9.24784 8.15256 9.37204 8.06222 9.64304 7.79123C10.4786 6.85404 11.0771 5.40873 11.0771 5.40873C11.1561 5.23936 11.2916 5.08128 11.5852 5.08128H12.7482Z" fill="#C1BEDA"/>
</svg>
