<svg width="16" height="16" viewBox="0 0 16 16" fill="none" xmlns="http://www.w3.org/2000/svg">
<path d="M0 16L1.12467 11.8913C0.430667 10.6887 0.066 9.32533 0.0666667 7.92733C0.0686667 3.55667 3.62533 0 7.99533 0C10.116 0.000666667 12.1067 0.826667 13.604 2.32533C15.1007 3.824 15.9247 5.816 15.924 7.93467C15.922 12.306 12.3653 15.8627 7.99533 15.8627C6.66867 15.862 5.36133 15.5293 4.20333 14.8973L0 16ZM4.398 13.462C5.51533 14.1253 6.582 14.5227 7.99267 14.5233C11.6247 14.5233 14.5833 11.5673 14.5853 7.93333C14.5867 4.292 11.642 1.34 7.998 1.33867C4.36333 1.33867 1.40667 4.29467 1.40533 7.928C1.40467 9.41133 1.83933 10.522 2.56933 11.684L1.90333 14.116L4.398 13.462ZM11.9893 9.81933C11.94 9.73667 11.808 9.68733 11.6093 9.588C11.4113 9.48867 10.4373 9.00933 10.2553 8.94333C10.074 8.87733 9.942 8.844 9.80933 9.04267C9.67733 9.24067 9.29733 9.68733 9.182 9.81933C9.06667 9.95133 8.95067 9.968 8.75267 9.86867C8.55467 9.76933 7.916 9.56067 7.15933 8.88533C6.57067 8.36 6.17267 7.71133 6.05733 7.51267C5.942 7.31467 6.04533 7.20733 6.144 7.10867C6.23333 7.02 6.342 6.87733 6.44133 6.76133C6.542 6.64667 6.57467 6.564 6.64133 6.43133C6.70733 6.29933 6.67467 6.18333 6.62467 6.084C6.57467 5.98533 6.17867 5.01 6.014 4.61333C5.85267 4.22733 5.68933 4.27933 5.568 4.27333L5.188 4.26667C5.056 4.26667 4.84133 4.316 4.66 4.51467C4.47867 4.71333 3.96667 5.192 3.96667 6.16733C3.96667 7.14267 4.67667 8.08467 4.77533 8.21667C4.87467 8.34867 6.172 10.35 8.15933 11.208C8.632 11.412 9.00133 11.534 9.28867 11.6253C9.76333 11.776 10.1953 11.7547 10.5367 11.704C10.9173 11.6473 11.7087 11.2247 11.874 10.762C12.0393 10.2987 12.0393 9.902 11.9893 9.81933Z" fill="#C1BEDA"/>
</svg>
