<svg width="24" height="24" viewBox="0 0 24 24" fill="none" xmlns="http://www.w3.org/2000/svg">
<path d="M13.9998 18.0001C14.265 18.0001 14.5194 17.8948 14.7069 17.7073C14.8944 17.5197 14.9998 17.2654 14.9998 17.0001V15.0001C14.9998 14.7349 14.8944 14.4806 14.7069 14.293C14.5194 14.1055 14.265 14.0001 13.9998 14.0001C13.7346 14.0001 13.4802 14.1055 13.2927 14.293C13.1052 14.4806 12.9998 14.7349 12.9998 15.0001V17.0001C12.9998 17.2654 13.1052 17.5197 13.2927 17.7073C13.4802 17.8948 13.7346 18.0001 13.9998 18.0001ZM9.99979 18.0001C10.265 18.0001 10.5194 17.8948 10.7069 17.7073C10.8944 17.5197 10.9998 17.2654 10.9998 17.0001V15.0001C10.9998 14.7349 10.8944 14.4806 10.7069 14.293C10.5194 14.1055 10.265 14.0001 9.99979 14.0001C9.73458 14.0001 9.48022 14.1055 9.29269 14.293C9.10515 14.4806 8.99979 14.7349 8.99979 15.0001V17.0001C8.99979 17.2654 9.10515 17.5197 9.29269 17.7073C9.48022 17.8948 9.73458 18.0001 9.99979 18.0001ZM18.9998 6.00015H17.6198L15.8898 2.55015C15.8369 2.4232 15.7585 2.30852 15.6593 2.21328C15.5601 2.11803 15.4423 2.04427 15.3133 1.99659C15.1843 1.94892 15.0469 1.92836 14.9096 1.9362C14.7723 1.94404 14.6381 1.98011 14.5154 2.04216C14.3927 2.10421 14.2841 2.1909 14.1964 2.29682C14.1087 2.40274 14.0438 2.5256 14.0057 2.65774C13.9676 2.78988 13.9572 2.92845 13.9752 3.0648C13.9931 3.20114 14.0389 3.33232 14.1098 3.45015L15.3798 6.00015H8.61979L9.88979 3.45015C9.98686 3.21706 9.99215 2.95587 9.90461 2.71904C9.81708 2.4822 9.64319 2.28725 9.41785 2.17331C9.19252 2.05938 8.93244 2.03491 8.68981 2.10481C8.44718 2.17471 8.23997 2.3338 8.10979 2.55015L6.37979 6.00015H4.99979C4.29298 6.0109 3.61267 6.2709 3.07884 6.73428C2.54502 7.19767 2.19197 7.83468 2.08196 8.53296C1.97196 9.23124 2.11207 9.94594 2.47758 10.551C2.84309 11.1561 3.41052 11.6126 4.07979 11.8401L4.81979 19.3001C4.89441 20.0427 5.24314 20.7308 5.79786 21.2301C6.35259 21.7293 7.07349 22.0039 7.81979 22.0001H16.1998C16.9461 22.0039 17.667 21.7293 18.2217 21.2301C18.7764 20.7308 19.1252 20.0427 19.1998 19.3001L19.9398 11.8401C20.6105 11.6119 21.1788 11.1537 21.5441 10.5466C21.9093 9.93955 22.048 9.22278 21.9354 8.52329C21.8228 7.8238 21.4663 7.18674 20.929 6.72492C20.3917 6.26311 19.7083 6.00636 18.9998 6.00015ZM17.1898 19.1001C17.1649 19.3477 17.0487 19.577 16.8638 19.7435C16.6789 19.9099 16.4386 20.0014 16.1898 20.0001H7.80979C7.56103 20.0014 7.32073 19.9099 7.13582 19.7435C6.95091 19.577 6.83467 19.3477 6.80979 19.1001L6.09979 12.0001H17.8998L17.1898 19.1001ZM18.9998 10.0001H4.99979C4.73458 10.0001 4.48022 9.89479 4.29269 9.70726C4.10515 9.51972 3.99979 9.26537 3.99979 9.00015C3.99979 8.73493 4.10515 8.48058 4.29269 8.29304C4.48022 8.10551 4.73458 8.00015 4.99979 8.00015H18.9998C19.265 8.00015 19.5194 8.10551 19.7069 8.29304C19.8944 8.48058 19.9998 8.73493 19.9998 9.00015C19.9998 9.26537 19.8944 9.51972 19.7069 9.70726C19.5194 9.89479 19.265 10.0001 18.9998 10.0001Z" fill="#3F3D52"/>
</svg>
