<svg id="svg" fill="#000000" stroke="#000000" width="200px" height="200px" version="1.1" viewBox="144 144 512 512" xmlns="http://www.w3.org/2000/svg">
    <g id="IconSvg_bgCarrier" stroke-width="0"></g>
    <g id="IconSvg_tracerCarrier" stroke-linecap="round" stroke-linejoin="round" stroke="#CCCCCC"></g>
     <g id="IconSvg_iconCarrier">
      <path xmlns="http://www.w3.org/2000/svg" d="m228.7 258.93c-11.129 0-20.152 9.0234-20.152 20.152 0 11.129 9.0234 20.152 20.152 20.152h342.59c11.129 0 20.152-9.0234 20.152-20.152 0-11.129-9.0234-20.152-20.152-20.152zm0 120.91c-11.129 0-20.152 9.0234-20.152 20.152s9.0234 20.152 20.152 20.152h342.59c11.129 0 20.152-9.0234 20.152-20.152s-9.0234-20.152-20.152-20.152zm0 120.91c-11.129 0-20.152 9.0234-20.152 20.152 0 11.129 9.0234 20.152 20.152 20.152h342.59c11.129 0 20.152-9.0234 20.152-20.152 0-11.129-9.0234-20.152-20.152-20.152z"></path>

      </g>
      </svg>