<svg width="24" height="24" viewBox="0 0 24 24" fill="none" xmlns="http://www.w3.org/2000/svg">
<path d="M19.92 11.6241C19.8724 11.5013 19.801 11.3892 19.71 11.2941L15.71 7.29409C15.6168 7.20085 15.5061 7.12689 15.3842 7.07643C15.2624 7.02597 15.1319 7 15 7C14.7337 7 14.4783 7.10579 14.29 7.29409C14.1017 7.4824 13.9959 7.73779 13.9959 8.00409C13.9959 8.27039 14.1017 8.52579 14.29 8.71409L16.59 11.0041H5C4.73478 11.0041 4.48043 11.1094 4.29289 11.297C4.10536 11.4845 4 11.7389 4 12.0041C4 12.2693 4.10536 12.5237 4.29289 12.7112C4.48043 12.8987 4.73478 13.0041 5 13.0041H16.59L14.29 15.2941C14.1963 15.3871 14.1219 15.4977 14.0711 15.6195C14.0203 15.7414 13.9942 15.8721 13.9942 16.0041C13.9942 16.1361 14.0203 16.2668 14.0711 16.3887C14.1219 16.5105 14.1963 16.6211 14.29 16.7141C14.383 16.8078 14.4936 16.8822 14.6154 16.933C14.7373 16.9838 14.868 17.0099 15 17.0099C15.132 17.0099 15.2627 16.9838 15.3846 16.933C15.5064 16.8822 15.617 16.8078 15.71 16.7141L19.71 12.7141C19.801 12.619 19.8724 12.5068 19.92 12.3841C20.02 12.1406 20.02 11.8676 19.92 11.6241Z" fill="#3F3D52"/>
</svg>
