<svg width="168" height="26" viewBox="0 0 168 26" fill="none" xmlns="http://www.w3.org/2000/svg">
<g clip-path="url(#clip0_921_3179)">
<path d="M62.0686 14.2751H51.7321V22.0595H56.6168V17.1942H62.0686V25.9517H53.4631C52.3565 25.9696 51.2514 25.8619 50.1702 25.6306C49.3449 25.4581 48.578 25.0831 47.9417 24.5408C47.3431 23.9905 46.9096 23.2906 46.6882 22.5168C46.4074 21.5221 46.2734 20.4933 46.2903 19.4615V16.7369C46.2626 15.686 46.3933 14.6368 46.6783 13.6231C46.9006 12.872 47.335 12.1974 47.9318 11.677C48.576 11.1564 49.3414 10.7989 50.1603 10.6359C51.2427 10.413 52.3471 10.3086 53.4532 10.3245H62.0686V14.2751ZM19.4891 26.0004V14.3237H15.2013V26.0004H9.75946V14.3237H5.44182V26.0004H0V10.305H19.4194C20.1757 10.2397 20.9377 10.3213 21.6616 10.5451C22.3855 10.7689 23.057 11.1304 23.6376 11.6089C24.1268 12.1767 24.4964 12.8336 24.7252 13.5416C24.954 14.2497 25.0374 14.995 24.9707 15.7347V26.0004H19.4891ZM38.043 19.8312H32.5315V22.439H38.0828L38.043 19.8312ZM32.1236 26.0004C30.83 26.0775 29.5553 25.6666 28.5621 24.8522C28.107 24.3903 27.7573 23.8392 27.5361 23.2354C27.3149 22.6315 27.2272 21.9886 27.2787 21.3492V20.9405C27.2246 20.3019 27.3063 19.6592 27.5186 19.053C27.7309 18.4467 28.0693 17.8901 28.5124 17.418C29.5198 16.5951 30.8145 16.1869 32.1236 16.2796H38.043V14.2751H28.7014V10.305H37.9634C38.7197 10.2397 39.4817 10.3213 40.2056 10.5451C40.9295 10.7689 41.601 11.1304 42.1816 11.6089C42.6708 12.1767 43.0404 12.8336 43.2692 13.5416C43.498 14.2497 43.5814 14.995 43.5147 15.7347V26.0004H32.1236ZM75.897 26.0004V14.3237H70.286V26.0004H64.8442V10.305H75.7875C76.5438 10.2397 77.3058 10.3213 78.0297 10.5451C78.7536 10.7689 79.4251 11.1304 80.0057 11.6089C80.4949 12.1767 80.8645 12.8336 81.0933 13.5416C81.3221 14.2497 81.4055 14.995 81.3388 15.7347V26.0004H75.897ZM84.1144 26.0004V10.305H89.5562V26.0004H84.1144Z" fill="#A71680"/>
<path d="M107.205 14.2746H98.9276V22.059H107.195V25.9999H100.649C99.542 26.0178 98.437 25.9101 97.3557 25.6788C96.5304 25.5063 95.7635 25.1313 95.1273 24.589C94.5286 24.0387 94.0952 23.3388 93.8737 22.565C93.6015 21.5527 93.4809 20.5072 93.5156 19.461V16.7364C93.4879 15.6855 93.6186 14.6363 93.9036 13.6227C94.1259 12.8715 94.5604 12.197 95.1571 11.6766C95.8014 11.156 96.5667 10.7984 97.3856 10.6354C98.468 10.4125 99.5724 10.3081 100.679 10.324H107.225L107.205 14.2746ZM109.851 25.9513V10.3045H115.293V22.059H123.918V25.9999L109.851 25.9513ZM126.316 25.9513V10.3045H131.758V25.9999L126.316 25.9513ZM147.964 14.2746H139.677V22.059H147.944V25.9999H141.398C140.291 26.0178 139.186 25.9101 138.105 25.6788C137.279 25.5063 136.513 25.1313 135.876 24.589C135.278 24.0387 134.844 23.3388 134.623 22.565C134.339 21.5479 134.208 20.4956 134.235 19.4415V16.7364C134.207 15.6855 134.338 14.6363 134.623 13.6227C134.845 12.8715 135.279 12.197 135.876 11.6766C136.52 11.156 137.286 10.7984 138.105 10.6354C139.187 10.4125 140.292 10.3081 141.398 10.324H147.944L147.964 14.2746ZM161.702 25.9513L156.052 19.4999V25.9513H150.61V10.3045H156.052V16.5418L161.285 10.2656H167.562L161.076 17.7387L168.04 25.9513H161.702Z" fill="#312783"/>
<path d="M129.063 -0.00785912L124.434 4.51953L129.063 9.04692L133.692 4.51953L129.063 -0.00785912Z" fill="#A71680"/>
<path d="M88.3275 -0.00199883L83.6987 4.52539L88.3275 9.05278L92.9563 4.52539L88.3275 -0.00199883Z" fill="#312783"/>
</g>
<defs>
<clipPath id="clip0_921_3179">
<rect width="168" height="26" fill="white"/>
</clipPath>
</defs>
</svg>
