<svg width="78" height="78" viewBox="0 0 78 78" fill="none" xmlns="http://www.w3.org/2000/svg">
<g clip-path="url(#clip0_111_5392)">
<path d="M39 78C60.5391 78 78 60.5391 78 39C78 17.4609 60.5391 0 39 0C17.4609 0 0 17.4609 0 39C0 60.5391 17.4609 78 39 78Z" fill="#312783"/>
<path d="M20.6698 12.8082L24.1181 17.0332L23.3446 17.6637L20.4358 14.0887L18.7686 15.4504L19.5941 16.5392C19.9797 17.03 20.3243 17.5518 20.6243 18.0992C20.8291 18.4451 20.941 18.838 20.9493 19.2399C20.9404 19.4113 20.8932 19.5786 20.811 19.7293C20.7289 19.8801 20.614 20.0105 20.4748 20.1109C20.3258 20.2234 20.1657 20.3203 19.9971 20.4002L19.4998 19.6722C19.5727 19.6412 19.6406 19.5995 19.7013 19.5487C19.8224 19.4444 19.9046 19.3022 19.9347 19.1453C19.9648 18.9883 19.941 18.8258 19.8671 18.6842C19.627 18.1313 19.312 17.614 18.9311 17.1469L17.5498 15.3432L20.6698 12.8082Z" fill="white"/>
<path d="M28.4698 13.7444L28.8598 14.4984L25.2198 16.3769L22.7173 11.5246L26.2598 9.69811L26.6498 10.4521L24.0075 11.8139L24.6575 13.0749L27.0008 11.8659L27.3843 12.6069L25.041 13.8159L25.7333 15.1549L28.4698 13.7444ZM23.2243 10.5171C23.165 10.4983 23.1102 10.4676 23.0632 10.4268C23.0162 10.386 22.9782 10.336 22.9513 10.2799C22.9205 10.225 22.9011 10.1644 22.8944 10.1019C22.8877 10.0393 22.8938 9.97601 22.9123 9.91586C22.9538 9.7986 23.0383 9.70149 23.1488 9.64417C23.2592 9.58685 23.3872 9.57361 23.507 9.60711C23.5672 9.62694 23.6227 9.65876 23.6702 9.70066C23.7176 9.74256 23.7561 9.79366 23.7833 9.85086C23.8243 9.93354 23.8404 10.0264 23.8295 10.1181C23.8186 10.2097 23.7811 10.2962 23.7218 10.3669C23.6625 10.4376 23.5838 10.4895 23.4954 10.5162C23.4071 10.5429 23.3128 10.5432 23.2243 10.5171ZM24.5698 9.82486C24.5111 9.80569 24.4569 9.77477 24.4105 9.73399C24.3641 9.6932 24.3265 9.64339 24.3 9.58761C24.2689 9.53288 24.2493 9.4723 24.2426 9.40968C24.2359 9.34705 24.2422 9.28371 24.261 9.22361C24.3026 9.10635 24.3871 9.00924 24.4975 8.95192C24.6079 8.8946 24.736 8.88136 24.8558 8.91486C24.916 8.93452 24.9716 8.96628 25.0191 9.00819C25.0666 9.05011 25.105 9.1013 25.132 9.15861C25.1731 9.24129 25.1892 9.33414 25.1782 9.42581C25.1673 9.51747 25.1299 9.60396 25.0706 9.67467C25.0112 9.74539 24.9326 9.79726 24.8442 9.82394C24.7558 9.85062 24.6616 9.85094 24.573 9.82486H24.5698Z" fill="white"/>
<path d="M31.9018 8.72295L29.3018 9.52245L30.67 13.9164L29.7178 14.2122L28.0928 9.0122L31.6548 7.9007L31.9018 8.72295Z" fill="white"/>
<path d="M35.6173 10.4813L34.6098 10.5983L34.8795 12.8733L33.8883 12.9903L33.2383 7.56932L34.2295 7.45232L34.496 9.72732L35.5328 9.60382L36.8328 7.15007L37.902 7.02332L36.3583 9.86707L38.6073 12.4378L37.4698 12.5711L35.6173 10.4813Z" fill="white"/>
<path d="M40.0754 12.2721C39.6626 11.9995 39.3331 11.6182 39.1231 11.1704C38.9164 10.7102 38.8331 10.2042 38.8816 9.7021C38.93 9.2 39.1085 8.7192 39.3994 8.3071C39.6904 7.90726 40.0863 7.59569 40.5434 7.40685C41.0301 7.21438 41.5555 7.14024 42.0765 7.19052C42.5974 7.24081 43.099 7.41409 43.5399 7.6961C43.9493 7.96278 44.2784 8.33575 44.4922 8.7751C44.6985 9.23699 44.7815 9.7445 44.7331 10.248C44.6846 10.7516 44.5065 11.234 44.2159 11.6481C43.924 12.0463 43.5282 12.3566 43.0719 12.5451C42.5852 12.7376 42.0598 12.8117 41.5388 12.7614C41.0179 12.7111 40.5163 12.5379 40.0754 12.2559V12.2721ZM42.6267 11.7424C42.9282 11.6098 43.187 11.396 43.3742 11.1249C43.5636 10.8404 43.6799 10.5136 43.7128 10.1735C43.7457 9.83332 43.6941 9.4903 43.5626 9.17485C43.4304 8.87218 43.2166 8.61225 42.9451 8.4241C42.6603 8.23573 42.3336 8.12005 41.9936 8.08719C41.6537 8.05433 41.3108 8.10528 40.9951 8.2356C40.6937 8.36835 40.4349 8.5821 40.2476 8.8531C40.0582 9.13754 39.9419 9.46432 39.909 9.80448C39.8761 10.1446 39.9277 10.4877 40.0591 10.8031C40.1916 11.1048 40.4054 11.3636 40.6766 11.5506C40.9615 11.739 41.2882 11.8547 41.6282 11.8875C41.9681 11.9204 42.311 11.8694 42.6267 11.7391V11.7424Z" fill="white"/>
<path d="M46.3417 13.2958C46.0017 12.943 45.7656 12.5033 45.6592 12.0251C45.5602 11.5293 45.5913 11.0162 45.7497 10.5361C45.908 10.0559 46.1882 9.62496 46.5627 9.28533C46.9316 8.96349 47.3809 8.74782 47.8627 8.66133C48.3765 8.56795 48.9055 8.6071 49.4 8.77508C49.801 8.90088 50.1724 9.10651 50.492 9.37958C50.7873 9.63446 51.0189 9.95503 51.168 10.3156L50.375 10.6958C50.2653 10.4438 50.1025 10.2184 49.8978 10.035C49.6931 9.85158 49.4512 9.71449 49.1887 9.63308C48.8569 9.51778 48.501 9.4898 48.1552 9.55183C47.8303 9.612 47.5286 9.76171 47.2842 9.98408C47.0337 10.2222 46.8461 10.5188 46.7384 10.8472C46.6306 11.1756 46.606 11.5256 46.6667 11.8658C46.7323 12.1903 46.8877 12.4898 47.1152 12.7303C47.3569 12.9851 47.6603 13.1731 47.996 13.2763C48.256 13.3664 48.5326 13.3988 48.8065 13.3713C49.0803 13.3438 49.345 13.257 49.582 13.1171L50.011 13.9133C49.6753 14.1154 49.2967 14.2357 48.906 14.2643C48.4854 14.2941 48.0632 14.2388 47.6645 14.1018C47.1618 13.9509 46.7063 13.6733 46.3417 13.2958Z" fill="white"/>
<path d="M55.9848 12.9416L54.4021 12.0673L52.1791 16.0973L51.2983 15.6001L53.5213 11.5701L51.9418 10.7251L52.3578 9.9743L56.4008 12.2071L55.9848 12.9416Z" fill="white"/>
<path d="M59.4034 17.4719C59.4391 17.7132 59.4193 17.9596 59.3455 18.1922C59.2718 18.4247 59.146 18.6374 58.9777 18.8141C58.8234 19.0218 58.6238 19.1915 58.394 19.3104C58.1642 19.4292 57.9103 19.494 57.6517 19.4999C57.0725 19.4726 56.5215 19.2425 56.0949 18.8499L54.2749 17.3581L57.7524 13.1331L58.5227 13.7831L57.3462 15.2099L58.5129 16.1849C58.9516 16.4961 59.2668 16.9516 59.4034 17.4719ZM57.4339 18.5899C57.5803 18.5817 57.7229 18.5406 57.8512 18.4697C57.9795 18.3988 58.0901 18.2999 58.1749 18.1804C58.5952 17.6712 58.4869 17.1555 57.8499 16.6334L56.8749 15.8046L55.5749 17.3906L56.5499 18.2194C56.7901 18.4457 57.1041 18.5773 57.4339 18.5899Z" fill="white"/>
<path d="M20.4751 39.7086L29.1721 44.8501C29.6304 43.2576 28.9609 41.8666 28.2816 40.2383C30.0561 41.6163 31.2066 43.1146 31.7884 44.9931C32.3594 47.0068 33.6262 48.7526 35.3634 49.9201C37.3459 51.2526 39.3706 52.5201 41.3889 53.8006C41.8381 54.0339 42.3028 54.2359 42.7799 54.4051V51.4801L42.9944 51.3631C43.3194 52.2438 43.8166 53.1051 43.9206 54.0086C44.0149 54.8146 44.3366 55.0746 45.0191 55.2696C47.4589 55.9565 50.0497 55.8862 52.4486 55.0681C54.2491 54.4733 55.9619 53.5893 57.6746 52.7573C58.2206 52.4908 58.6496 51.9708 59.2996 51.4151C58.6496 51.0901 58.2044 50.8756 57.7494 50.6871C56.6444 50.2354 55.4289 49.9623 54.4474 49.3221C53.1799 48.4933 52.0164 48.5421 50.7391 49.0946C50.4365 49.2424 50.0922 49.2814 49.7641 49.2051L51.7564 47.8271C49.0621 45.0224 46.0754 42.9944 41.8601 43.9271L41.7659 43.6021L45.4449 41.4766C42.8124 38.9059 40.8104 35.4706 36.9949 34.0536C35.2691 33.4036 33.5369 33.6376 31.8306 34.1901C31.2326 34.3851 30.6444 34.6126 30.0496 34.8401L29.8644 34.5606L33.4394 32.0808C29.0681 31.0246 25.5679 32.5976 22.3894 35.1521L21.4144 32.4221L20.8359 34.9441C19.4481 33.9691 18.0896 33.8554 16.4321 34.4534C17.2944 34.6017 18.106 34.9629 18.7933 35.5044C19.4806 36.0458 20.0218 36.7503 20.3679 37.5539C22.4349 37.0924 24.3719 36.4261 26.3479 36.2539C30.1016 35.9549 33.2736 37.4076 35.9029 40.0954C39.3609 43.6249 42.8449 47.1316 46.1891 50.5181C45.4709 50.1216 44.4146 49.7316 43.5891 49.0556C40.5081 46.5271 37.4531 43.9628 34.4891 41.3011C30.8134 38.0251 26.6924 37.1768 22.0449 38.6751C21.5606 38.8311 21.1024 39.0619 20.6311 39.2601L20.4751 39.7086Z" fill="white"/>
</g>
<defs>
<clipPath id="clip0_111_5392">
<rect width="78" height="78" fill="white"/>
</clipPath>
</defs>
</svg>
