<svg width="78" height="78" viewBox="0 0 78 78" fill="none" xmlns="http://www.w3.org/2000/svg">
<g clip-path="url(#clip0_111_5423)">
<path d="M39 78C60.5391 78 78 60.5391 78 39C78 17.4609 60.5391 0 39 0C17.4609 0 0 17.4609 0 39C0 60.5391 17.4609 78 39 78Z" fill="#312783"/>
<path d="M8.93759 29.1981C9.28015 28.863 9.70868 28.629 10.1758 28.5221C10.6684 28.4197 11.1785 28.4393 11.6617 28.5792C12.1449 28.7191 12.5865 28.9751 12.9481 29.3249C13.2906 29.6607 13.5336 30.0848 13.6501 30.5501C13.7643 31.0376 13.7475 31.5467 13.6013 32.0256C13.4802 32.4466 13.2758 32.8389 13.0001 33.1794C12.7583 33.4884 12.4448 33.7338 12.0868 33.8944L11.6643 33.1079C11.9187 32.9839 12.1433 32.8064 12.3228 32.5877C12.5022 32.3689 12.6324 32.114 12.7043 31.8404C12.8367 31.4248 12.8077 30.9746 12.6231 30.5794C12.4332 30.1807 12.1053 29.8644 11.7001 29.6889L11.0501 32.0354L10.2798 31.8111L10.9526 29.4809C10.532 29.4365 10.1092 29.5399 9.75659 29.7734C9.40525 30.0091 9.15214 30.3651 9.04484 30.7744C8.96017 31.044 8.93463 31.3288 8.96996 31.6092C9.0053 31.8896 9.10067 32.1591 9.24959 32.3994L8.45009 32.8251C8.23356 32.4981 8.09972 32.1233 8.06009 31.7331C8.01797 31.3043 8.06104 30.8713 8.18684 30.4591C8.32217 29.9802 8.58108 29.5453 8.93759 29.1981Z" fill="white"/>
<path d="M13.5526 25.6748L13.0814 26.5718L15.1191 27.6443L14.6544 28.5283L9.81836 25.9998L10.2831 25.1158L12.3046 26.1818L12.7921 25.2556L11.4921 22.8051L11.9926 21.8528L13.4649 24.7356L16.8676 24.3196L16.3346 25.3336L13.5526 25.6748Z" fill="white"/>
<path d="M17.5501 23.0165C17.0922 23.2028 16.5917 23.2591 16.1039 23.179C15.607 23.0894 15.142 22.8717 14.755 22.5474C14.368 22.223 14.0723 21.8034 13.8971 21.3298C13.7327 20.8634 13.7001 20.3607 13.8029 19.877C13.9211 19.3651 14.1597 18.8888 14.4988 18.4875C14.8379 18.0862 15.2679 17.7715 15.7529 17.5695C16.21 17.3843 16.7091 17.3281 17.1959 17.407C17.6935 17.4981 18.159 17.7166 18.5469 18.0413C18.9348 18.366 19.2319 18.7857 19.4091 19.2595C19.5716 19.7253 19.6031 20.2267 19.5001 20.709C19.3821 21.2211 19.1437 21.6975 18.8045 22.0989C18.4654 22.5002 18.0353 22.8148 17.5501 23.0165ZM18.5576 20.6148C18.6211 20.2883 18.5918 19.9505 18.4731 19.6398C18.346 19.3198 18.1414 19.0364 17.8776 18.8152C17.6138 18.5939 17.2991 18.4417 16.9619 18.3723C16.6354 18.3085 16.2975 18.3378 15.9869 18.4568C15.6691 18.5854 15.3879 18.7903 15.168 19.0533C14.9481 19.3162 14.7963 19.6293 14.7259 19.9648C14.6625 20.2913 14.6917 20.6291 14.8104 20.9398C14.9378 21.2602 15.1429 21.5438 15.4073 21.7651C15.6717 21.9864 15.9871 22.1383 16.3249 22.2073C16.6514 22.2711 16.9892 22.2418 17.2999 22.1228C17.6176 21.9941 17.8989 21.7893 18.1188 21.5263C18.3387 21.2633 18.4905 20.9503 18.5609 20.6148H18.5576Z" fill="white"/>
<path d="M21.5865 12.1909L24.8885 16.5394L24.0923 17.1439L21.3103 13.4779L19.5975 14.7779L20.3873 15.8927C20.7555 16.3969 21.0816 16.9306 21.3623 17.4884C21.5518 17.8418 21.647 18.238 21.6385 18.6389C21.6258 18.8106 21.5745 18.9773 21.4884 19.1264C21.4023 19.2755 21.2836 19.4033 21.1413 19.5002C20.9885 19.6075 20.8251 19.699 20.6538 19.7732L20.176 19.0127C20.2496 18.9838 20.3186 18.9444 20.3808 18.8957C20.5057 18.7959 20.5931 18.6567 20.6285 18.5008C20.6639 18.3449 20.6453 18.1816 20.5758 18.0377C20.3551 17.4777 20.0587 16.9507 19.695 16.4712L18.395 14.6219L21.5865 12.1909Z" fill="white"/>
<path d="M26.7832 15.2003C26.2896 15.1663 25.8149 14.9964 25.4117 14.7096C25.0047 14.4111 24.6827 14.0115 24.4775 13.5504C24.2722 13.0892 24.191 12.5825 24.2417 12.0803C24.2967 11.5861 24.488 11.1168 24.7942 10.7251C25.123 10.3182 25.5437 9.99516 26.0217 9.7827C26.4997 9.57025 27.0214 9.4744 27.5437 9.50307C28.041 9.53681 28.5191 9.70782 28.925 9.99707C29.3317 10.2975 29.6536 10.6983 29.8592 11.1602C30.0648 11.6222 30.1472 12.1295 30.0982 12.6328C30.0366 13.1237 29.8409 13.5881 29.5327 13.9751C29.2033 14.382 28.782 14.705 28.3035 14.9175C27.8249 15.1299 27.3028 15.2257 26.78 15.1971L26.7832 15.2003ZM28.7332 13.4843C28.9311 13.2202 29.0515 12.9062 29.081 12.5776C29.1067 12.2341 29.0465 11.8897 28.9058 11.5753C28.7651 11.261 28.5483 10.9866 28.275 10.7771C28.011 10.5789 27.697 10.4585 27.3682 10.4293C27.026 10.4045 26.683 10.4645 26.3695 10.604C26.056 10.7434 25.7817 10.9581 25.571 11.2288C25.3732 11.4929 25.2528 11.8069 25.2232 12.1356C25.1966 12.4793 25.256 12.8242 25.3962 13.1391C25.5363 13.4541 25.7528 13.7291 26.026 13.9393C26.2901 14.1371 26.6041 14.2576 26.9327 14.2871C27.2749 14.3116 27.6179 14.2514 27.9313 14.112C28.2448 13.9726 28.5191 13.7581 28.73 13.4876L28.7332 13.4843Z" fill="white"/>
<path d="M34.4497 8.23224L31.8172 8.81074L32.8247 13.3055L31.8497 13.52L30.6797 8.18674L34.3002 7.39374L34.4497 8.23224Z" fill="white"/>
<path d="M35.9385 7.17936L36.9362 7.15661L37.0207 11.0501L39.8677 7.11111L40.8102 7.09161L40.9305 12.5516L39.9327 12.5744L39.8482 8.70686L37.0012 12.6394L36.0587 12.6589L35.9385 7.17936Z" fill="white"/>
<path d="M47.2843 8.12504L46.228 13.481L45.253 13.286L45.6495 11.2645C45.1552 11.3542 44.6488 11.3542 44.1545 11.2645C43.5776 11.1892 43.0493 10.9019 42.6725 10.4585C42.5175 10.2397 42.4124 9.98941 42.3647 9.72548C42.317 9.46155 42.3277 9.19036 42.3963 8.93104L42.7213 7.22479L43.6963 7.41979L43.3713 9.01879C43.3291 9.17604 43.3216 9.34054 43.3491 9.50099C43.3766 9.66144 43.4385 9.81403 43.5305 9.94829C43.7537 10.2153 44.0694 10.3882 44.4145 10.4325C44.8679 10.5245 45.3359 10.5167 45.786 10.4098L46.2735 7.93004L47.2843 8.12504Z" fill="white"/>
<path d="M54.0769 10.803L51.8734 15.7983L50.9472 15.3888L51.8929 13.247L49.3092 12.1063L48.3634 14.248L47.4502 13.8385L49.6537 8.84326L50.5832 9.25276L49.6732 11.3165L52.2569 12.4573L53.1669 10.3935L54.0769 10.803Z" fill="white"/>
<path d="M53.9499 16.809C53.7418 16.3595 53.6619 15.8613 53.7192 15.3692C53.7849 14.8687 53.9802 14.394 54.2857 13.9922C54.5913 13.5903 54.9964 13.2752 55.4612 13.078C55.9191 12.8919 56.4196 12.8356 56.9074 12.9155C57.4228 13.0073 57.9089 13.2201 58.3259 13.5365C58.7429 13.8529 59.0788 14.2639 59.3059 14.7355C59.5139 15.1839 59.5948 15.6808 59.5399 16.172C59.4725 16.6732 59.2762 17.1483 58.9703 17.551C58.6645 17.9538 58.2594 18.2703 57.7947 18.4697C57.3366 18.6556 56.8363 18.7118 56.3484 18.6322C55.8332 18.5402 55.3471 18.3273 54.9301 18.0109C54.5132 17.6945 54.1772 17.2837 53.9499 16.8122V16.809ZM56.3972 17.6995C56.7279 17.7487 57.0659 17.7037 57.3722 17.5695C57.6856 17.4274 57.9588 17.2095 58.167 16.9354C58.3753 16.6614 58.512 16.3398 58.5649 15.9997C58.6145 15.669 58.5694 15.331 58.4349 15.0247C58.2917 14.713 58.0739 14.4413 57.8006 14.2338C57.5274 14.0263 57.2072 13.8894 56.8684 13.8352C56.5377 13.7858 56.1997 13.8309 55.8934 13.9652C55.5797 14.1079 55.3064 14.3264 55.0982 14.601C54.89 14.8756 54.7534 15.1977 54.7007 15.5382C54.6516 15.869 54.6967 16.2069 54.8307 16.5132C54.9739 16.825 55.1917 17.0967 55.465 17.3042C55.7382 17.5116 56.0584 17.6486 56.3972 17.7027V17.6995Z" fill="white"/>
<path d="M58.7244 20.9691C58.6207 20.4879 58.6522 19.9874 58.8154 19.5229C58.9911 19.0487 59.2868 18.6282 59.6736 18.3024C60.0603 17.9765 60.525 17.7566 61.0221 17.6639C61.5084 17.5833 62.0074 17.6372 62.4651 17.8199C62.9467 18.0131 63.3716 18.325 63.7001 18.7266C63.9785 19.0471 64.1886 19.4208 64.3176 19.8252C64.4358 20.1978 64.4647 20.593 64.4021 20.9789L63.5084 20.8749C63.5474 20.6028 63.5272 20.3254 63.4493 20.0618C63.3713 19.7982 63.2374 19.5545 63.0566 19.3474C62.8342 19.0751 62.5455 18.8647 62.2181 18.7364C61.9082 18.6149 61.5702 18.5833 61.2431 18.6454C60.9047 18.7164 60.5892 18.8702 60.3249 19.0931C60.0606 19.3161 59.8557 19.6011 59.7286 19.9226C59.6125 20.2342 59.5866 20.5721 59.6539 20.8977C59.7306 21.2372 59.8928 21.5516 60.1251 21.8109C60.2999 22.024 60.5188 22.1966 60.7669 22.3167C61.0149 22.4368 61.2861 22.5015 61.5616 22.5064L61.5064 23.4002C61.1148 23.3965 60.7296 23.3007 60.3819 23.1206C60.0075 22.9264 59.6759 22.659 59.4069 22.3342C59.0684 21.9437 58.8337 21.4742 58.7244 20.9691Z" fill="white"/>
<path d="M67.1618 25.7724L66.2713 24.1962L62.264 26.4712L61.77 25.5937L65.7773 23.3187L64.89 21.7489L65.6375 21.3264L67.9125 25.3467L67.1618 25.7724Z" fill="white"/>
<path d="M67.6813 31.4275C67.5858 31.65 67.4411 31.8481 67.2582 32.0068C67.0753 32.1655 66.8588 32.2808 66.625 32.344C66.3845 32.4421 66.1246 32.4837 65.8655 32.4657C65.6063 32.4476 65.3547 32.3704 65.13 32.24C64.6521 31.9078 64.3068 31.4175 64.155 30.8555L63.4043 28.6325L68.575 26.8873L68.9 27.833L67.1483 28.4245L67.6 29.8578C67.8128 30.3547 67.8416 30.9112 67.6813 31.4275ZM65.4063 31.3398C65.5357 31.4124 65.6799 31.4545 65.828 31.463C65.9762 31.4714 66.1243 31.446 66.261 31.3885C66.8872 31.1718 67.0681 30.6768 66.8038 29.9033L66.3878 28.6683L64.4378 29.3183L64.8538 30.5533C64.939 30.8752 65.139 31.155 65.416 31.3398H65.4063Z" fill="white"/>
<path d="M29.9 20.9301C29.9 20.9301 11.1085 52.5298 35.711 60.7068C32.5812 54.7041 27.3682 42.4028 29.718 30.6151C29.718 30.6151 28.4992 43.0918 37.726 57.5543L37.752 57.5933C37.7877 57.6486 38.662 59.1696 38.7985 60.4501C39.4485 59.2931 40.7127 57.6908 41.2782 56.7093C51.5905 38.6913 30.4395 32.4123 29.9 20.9301Z" fill="white"/>
<path d="M65.5495 54.5123C65.5495 54.5123 45.8382 44.3235 41.792 59.4393C45.2955 57.3398 52.517 53.7583 59.7092 54.7495C59.7092 54.7495 52.1465 54.4635 43.7647 60.5378H43.742C43.2281 60.8791 42.6583 61.1277 42.0585 61.2723C42.78 61.6298 43.7907 62.3253 44.4017 62.634C55.624 68.2175 58.6497 55.25 65.5495 54.5123Z" fill="white"/>
</g>
<defs>
<clipPath id="clip0_111_5423">
<rect width="78" height="78" fill="white"/>
</clipPath>
</defs>
</svg>
