<svg width="79" height="78" viewBox="0 0 79 78" fill="none" xmlns="http://www.w3.org/2000/svg">
<g clip-path="url(#clip0_111_5403)">
<path d="M39.5 78C61.3153 78 79 60.5391 79 39C79 17.4609 61.3153 0 39.5 0C17.6848 0 0 17.4609 0 39C0 60.5391 17.6848 78 39.5 78Z" fill="#312783"/>
<path d="M13.963 30.8327L10.3981 29.9909L12.9228 32.4382L12.8142 32.8769L9.48304 33.9299L13.0018 34.7749L12.7747 35.7077L7.39941 34.4272L7.59691 33.6147L11.6654 32.3602L8.61733 29.4352L8.81483 28.6324L14.1934 29.8999L13.963 30.8327Z" fill="white"/>
<path d="M12.1196 21.9276L17.0044 24.4886L16.5238 25.3856L14.4303 24.2871L13.0906 26.7799L15.1841 27.8784L14.7036 28.7754L9.81543 26.2144L10.296 25.3174L12.3138 26.3736L13.6535 23.8809L11.6357 22.8246L12.1196 21.9276Z" fill="white"/>
<path d="M18.1832 22.4965C17.715 22.6714 17.207 22.7152 16.7152 22.6233C16.2143 22.5217 15.749 22.2929 15.3651 21.9595C14.9812 21.626 14.6921 21.1995 14.5262 20.722C14.3699 20.2516 14.3483 19.7478 14.4637 19.266C14.5921 18.756 14.8418 18.2835 15.1922 17.8879C15.5425 17.4922 15.9834 17.1848 16.4782 16.991C16.9462 16.8159 17.454 16.7709 17.9462 16.861C18.4477 16.964 18.9136 17.1935 19.2984 17.5273C19.6832 17.8611 19.9738 18.2877 20.1418 18.7655C20.296 19.2352 20.3165 19.7378 20.201 20.2183C20.0724 20.7282 19.8225 21.2005 19.4722 21.5961C19.1219 21.9917 18.6812 22.2993 18.1865 22.4933L18.1832 22.4965ZM19.2596 20.1175C19.3314 19.7931 19.3097 19.4554 19.1971 19.1425C19.0755 18.82 18.8748 18.5324 18.6128 18.3054C18.3508 18.0785 18.0358 17.9195 17.6961 17.8425C17.3675 17.7716 17.0254 17.793 16.7086 17.9043C16.3833 18.0246 16.0931 18.2222 15.8635 18.4795C15.6338 18.7369 15.4719 19.046 15.3919 19.3798C15.3201 19.7041 15.3418 20.0419 15.4544 20.3548C15.576 20.6773 15.7768 20.9649 16.0388 21.1918C16.3008 21.4187 16.6158 21.5778 16.9554 21.6548C17.284 21.7258 17.6261 21.7044 17.9429 21.593C18.2683 21.4729 18.5587 21.2754 18.7884 21.018C19.018 20.7606 19.1799 20.4514 19.2596 20.1175Z" fill="white"/>
<path d="M22.2916 12.9478L20.106 14.5728L22.9302 18.2356L22.1271 18.8498L18.7827 14.4981L21.7716 12.2589L22.2916 12.9478Z" fill="white"/>
<path d="M25.899 15.8634C25.3981 15.8549 24.9094 15.7098 24.4869 15.4442C24.0602 15.1662 23.7144 14.7831 23.4835 14.3329C23.2526 13.8826 23.1446 13.3807 23.1702 12.8767C23.2021 12.3825 23.3719 11.9067 23.6606 11.5019C23.9723 11.0786 24.3813 10.7344 24.854 10.4977C25.3267 10.261 25.8495 10.1384 26.3796 10.1402C26.8789 10.1488 27.3663 10.2927 27.7884 10.5562C28.2144 10.8363 28.5596 11.2207 28.7903 11.6718C29.0211 12.1229 29.1295 12.6254 29.1051 13.1302C29.0722 13.6231 28.9025 14.0976 28.6146 14.5017C28.3029 14.9249 27.8939 15.2691 27.4213 15.5059C26.9486 15.7426 26.4257 15.8651 25.8957 15.8634H25.899ZM27.7917 14.0499C27.9787 13.7763 28.0847 13.4567 28.0978 13.1269C28.1053 12.7838 28.0265 12.4442 27.8685 12.1385C27.7106 11.8328 27.4783 11.5706 27.1926 11.3752C26.9178 11.1828 26.594 11.0702 26.2578 11.0502C25.9108 11.0436 25.5674 11.1214 25.258 11.2767C24.9486 11.4319 24.6827 11.66 24.4836 11.9407C24.2966 12.2142 24.1906 12.5339 24.1774 12.8637C24.1683 13.2084 24.2463 13.5499 24.4043 13.8575C24.5624 14.165 24.7955 14.4288 25.0826 14.6252C25.3535 14.8156 25.6726 14.9281 26.0043 14.9502C26.3513 14.9567 26.6946 14.8789 27.004 14.7237C27.3134 14.5684 27.5794 14.3403 27.7785 14.0597L27.7917 14.0499Z" fill="white"/>
<path d="M33.0058 7.97562C33.3634 8.02889 33.6969 8.18617 33.9637 8.42737C34.2227 8.68668 34.4071 9.00943 34.4979 9.36243C34.5887 9.71542 34.5827 10.0859 34.4805 10.4359C34.363 10.7751 34.1451 11.0717 33.855 11.2874C33.5118 11.5421 33.1182 11.7226 32.6997 11.8171L31.4883 12.1194L31.8833 13.6501L30.8958 13.9004L29.5298 8.60612L31.7352 8.05362C32.1485 7.94019 32.5814 7.91362 33.0058 7.97562ZM33.358 10.4781C33.4477 10.3546 33.5069 10.2121 33.5309 10.062C33.5549 9.91195 33.543 9.75839 33.4962 9.61362C33.4678 9.46446 33.4045 9.32391 33.3114 9.20316C33.2182 9.08242 33.0978 8.98481 32.9597 8.91812C32.621 8.78994 32.2479 8.78076 31.9031 8.89212L30.7378 9.18462L31.2711 11.2906L32.4363 10.9981C32.7964 10.9359 33.1233 10.7521 33.3613 10.4781H33.358Z" fill="white"/>
<path d="M39.4143 11.284L36.6526 11.427L36.1753 12.727L35.1187 12.7823L37.3142 7.20202L38.3247 7.15002L41.1095 12.4735L40.0364 12.5288L39.4143 11.284ZM39.0324 10.5073L37.854 8.17702L36.9488 10.6145L39.0324 10.5073Z" fill="white"/>
<path d="M45.6981 10.8257C45.8485 11.082 45.9032 11.3821 45.8528 11.674C45.8102 11.9855 45.6504 12.2698 45.4052 12.4702C45.1337 12.6879 44.8111 12.8343 44.467 12.896C44.0719 12.972 43.6663 12.9786 43.2689 12.9155C42.8968 12.856 42.5347 12.7467 42.1925 12.5905C41.846 12.4396 41.5251 12.2368 41.2412 11.9892L41.679 11.3035C41.8991 11.5017 42.1489 11.6651 42.4196 11.7877C42.6887 11.9133 42.9747 11.9998 43.2689 12.0445C43.6248 12.1101 43.9921 12.0798 44.3321 11.9567C44.4635 11.9157 44.581 11.8397 44.6716 11.7371C44.7622 11.6344 44.8224 11.5092 44.8456 11.375C44.8666 11.2675 44.8578 11.1564 44.8201 11.0534C44.7825 10.9504 44.7174 10.8594 44.6316 10.79C44.4013 10.6169 44.1265 10.5111 43.8383 10.4845L42.5645 10.296L42.683 9.50949L43.8778 9.68499C44.1272 9.73609 44.3866 9.70764 44.6185 9.60374C44.7082 9.55946 44.7853 9.49376 44.8428 9.4126C44.9002 9.33144 44.9363 9.23739 44.9476 9.13899C44.9715 9.01745 44.9597 8.8917 44.9136 8.77655C44.8675 8.6614 44.7891 8.56164 44.6876 8.48899C44.4376 8.30568 44.1417 8.1933 43.8318 8.16399C43.575 8.1302 43.3149 8.1302 43.0582 8.16399C42.7904 8.19366 42.5279 8.25926 42.2781 8.35899L42.0806 7.50099C42.3852 7.39258 42.7027 7.32375 43.0253 7.29624C43.3445 7.26763 43.666 7.27635 43.9832 7.32224C44.3723 7.37282 44.7491 7.49169 45.0958 7.67324C45.3934 7.8247 45.6471 8.04837 45.8331 8.32324C45.9993 8.57469 46.0639 8.87854 46.0141 9.17474C45.9802 9.42706 45.8648 9.66185 45.685 9.84424C45.5041 10.0257 45.2765 10.1549 45.0266 10.218C45.3063 10.3508 45.5399 10.5622 45.6981 10.8257Z" fill="white"/>
<path d="M47.5677 13.4614C47.2385 13.0938 47.0176 12.6442 46.9291 12.1614C46.8471 11.6631 46.8984 11.1524 47.078 10.6798C47.2576 10.2072 47.5591 9.78914 47.9528 9.4671C48.3428 9.15672 48.8122 8.95877 49.309 8.8951C49.8356 8.83601 50.369 8.90124 50.8651 9.08544C51.3613 9.26964 51.8061 9.56753 52.1628 9.9546C52.4926 10.3222 52.7146 10.7717 52.8047 11.2546C52.8845 11.754 52.8319 12.2653 52.6519 12.7387C52.4719 13.212 52.1707 13.6312 51.7777 13.9554C51.3871 14.2643 50.9179 14.461 50.4215 14.5241C49.8949 14.5832 49.3615 14.518 48.8653 14.3338C48.3692 14.1496 47.9244 13.8517 47.5677 13.4646V13.4614ZM50.201 13.6141C50.5313 13.5656 50.8413 13.4271 51.0963 13.2144C51.3588 12.9893 51.5605 12.7034 51.6835 12.3823C51.8064 12.0612 51.8467 11.7151 51.8007 11.3749C51.7516 11.0488 51.6114 10.7427 51.3959 10.4909C51.1668 10.2332 50.877 10.0353 50.5521 9.91457C50.2271 9.79383 49.877 9.754 49.5328 9.7986C49.2026 9.84731 48.8926 9.98572 48.6375 10.1984C48.377 10.4222 48.1765 10.7059 48.0536 11.0245C47.9307 11.3431 47.8893 11.6867 47.933 12.0249C47.9825 12.3508 48.1227 12.6569 48.3379 12.9089C48.5672 13.1662 48.857 13.364 49.1819 13.4847C49.5068 13.6055 49.8568 13.6454 50.201 13.6011V13.6141Z" fill="white"/>
<path d="M57.4365 16.2078C57.4518 16.5758 57.3239 16.9357 57.0791 17.2136C56.8343 17.4916 56.4911 17.6666 56.1199 17.7028C55.5703 17.6972 55.0371 17.5171 54.5991 17.1893L52.4102 15.7625L55.4549 11.2125L57.5188 12.558C57.9643 12.8092 58.3197 13.1908 58.5359 13.65C58.6123 13.8382 58.639 14.0425 58.6137 14.2437C58.5884 14.4449 58.5118 14.6365 58.3911 14.8005C58.2507 15.0233 58.0453 15.1989 57.8019 15.3043C57.5579 15.4026 57.2895 15.4264 57.0317 15.3725C57.2537 15.601 57.3956 15.8937 57.4365 16.2078ZM56.3733 16.4353C56.6696 16.0019 56.5138 15.5827 55.9059 15.1775L54.5892 14.3195L53.6939 15.6618L55.0106 16.5198C55.6206 16.9163 56.076 16.8881 56.3766 16.4353H56.3733ZM55.0007 13.702L56.1495 14.4495C56.3626 14.6096 56.6224 14.6974 56.8901 14.6998C56.9999 14.6922 57.1062 14.6587 57.2001 14.6021C57.294 14.5456 57.3728 14.4676 57.4299 14.3748C57.4972 14.2863 57.5419 14.183 57.5603 14.0739C57.5786 13.9647 57.57 13.8527 57.5353 13.7475C57.4299 13.5032 57.246 13.2999 57.0119 13.169L55.8631 12.4215L55.0007 13.702Z" fill="white"/>
<path d="M57.966 19.4316C57.8303 18.9555 57.8303 18.4517 57.966 17.9756C58.1106 17.4915 58.3807 17.053 58.7496 16.7036C59.1186 16.3542 59.5735 16.1059 60.0694 15.9834C60.5573 15.8693 61.0677 15.8907 61.5441 16.0451C62.0453 16.2159 62.4982 16.5018 62.8656 16.8792C63.233 17.2567 63.5044 17.7149 63.6573 18.2161C63.7917 18.6913 63.7917 19.1937 63.6573 19.6689C63.5113 20.153 63.2409 20.5915 62.8723 20.9418C62.5037 21.2921 62.0495 21.5421 61.5539 21.6676C61.0667 21.7793 60.5577 21.7569 60.0826 21.6026C59.5813 21.4318 59.1284 21.146 58.761 20.7685C58.3936 20.3911 58.1222 19.9329 57.9693 19.4316H57.966ZM60.2702 20.6926C60.591 20.79 60.9331 20.7968 61.2577 20.7121C61.5938 20.6204 61.9015 20.4476 62.1531 20.2094C62.4048 19.9711 62.5925 19.6748 62.6994 19.3471C62.7979 19.0303 62.8048 18.6926 62.7192 18.3721C62.6246 18.0424 62.4493 17.7406 62.2088 17.4935C61.9683 17.2464 61.6699 17.0615 61.34 16.9551C61.0191 16.8579 60.677 16.8511 60.3525 16.9356C60.0178 17.029 59.7119 17.2029 59.462 17.4417C59.2121 17.6805 59.0261 17.9767 58.9206 18.3039C58.8223 18.6207 58.8154 18.9584 58.9008 19.2789C58.9952 19.6087 59.1703 19.9106 59.4109 20.1577C59.6515 20.4049 59.95 20.5897 60.2801 20.6959L60.2702 20.6926Z" fill="white"/>
<path d="M62.1073 24.2971C62.0828 23.8049 62.1967 23.3156 62.4364 22.8834C62.6872 22.4424 63.0495 22.0732 63.488 21.8117C63.9264 21.5502 64.4261 21.4055 64.9381 21.3916C65.4342 21.3911 65.9212 21.5236 66.3469 21.7751C66.8009 22.0402 67.1792 22.4149 67.4463 22.8639C67.6716 23.2206 67.8216 23.6185 67.8874 24.0339C67.947 24.4195 67.9143 24.8135 67.792 25.1844L66.9131 24.9439C66.9951 24.6811 67.0188 24.404 66.9824 24.1314C66.9461 23.8588 66.8505 23.5972 66.7024 23.3644C66.5234 23.0609 66.2684 22.8079 65.9618 22.6299C65.6726 22.4633 65.3419 22.38 65.0072 22.3894C64.6587 22.4052 64.3195 22.5058 64.0198 22.6821C63.72 22.8584 63.469 23.105 63.289 23.4001C63.1248 23.6892 63.0461 24.018 63.0618 24.3491C63.0855 24.6965 63.1988 25.0321 63.391 25.3241C63.5306 25.5612 63.7206 25.7656 63.9479 25.9233C64.1752 26.081 64.4344 26.1881 64.7077 26.2374L64.5102 27.1214C64.1182 27.0571 63.7471 26.9023 63.4272 26.6696C63.0851 26.4187 62.7974 26.1027 62.5813 25.7401C62.3039 25.3056 62.141 24.8096 62.1073 24.2971Z" fill="white"/>
<path d="M69.7537 30.3062L69.125 28.6L64.7471 30.225L64.3916 29.2825L68.7596 27.6737L68.1211 25.987L68.9341 25.688L70.5799 30.0137L69.7537 30.3062Z" fill="white"/>
<path d="M69.3782 35.9807C69.2448 36.1857 69.0663 36.3585 68.8561 36.4862C68.6458 36.6139 68.4091 36.6933 68.1636 36.7184C67.908 36.7796 67.6415 36.7821 67.3848 36.7258C67.128 36.6694 66.8877 36.5557 66.6824 36.3934C66.2579 35.991 65.9909 35.4535 65.9286 34.8757L65.5303 32.5617L70.9813 31.6452L71.1491 32.6202L69.3025 32.9452L69.5593 34.4369C69.6843 34.9566 69.6202 35.503 69.3782 35.9807ZM67.1267 35.5387C67.2449 35.631 67.3828 35.6953 67.53 35.7269C67.6772 35.7584 67.8297 35.7563 67.976 35.7207C68.6343 35.6102 68.8944 35.1498 68.7561 34.3394L68.5356 33.0395L66.4914 33.4002L66.712 34.7002C66.7464 35.019 66.8932 35.3158 67.1267 35.5387Z" fill="white"/>
<path d="M58.9867 42.1461L56.8372 38.4736L47.3177 43.9108L48.7134 46.2963C54.3816 46.1988 58.1111 44.4731 58.7562 44.1513L58.7727 44.1773C55.1749 47.4468 49.2269 47.1836 49.2269 47.1836H41.9852V46.2086H41.9589L36.2676 52.4226V52.4453L41.949 58.6658H41.9753V57.8208H49.8161C50.4633 57.8209 51.099 57.6527 51.6595 57.3332C52.22 57.0137 52.6854 56.5542 53.009 56.0008L58.9669 45.8153C59.2987 45.2601 59.4753 44.628 59.4788 43.9833C59.4823 43.3387 59.3124 42.7047 58.9867 42.1461Z" fill="white"/>
<path d="M38.8416 31.2001C36.0503 26.3055 32.7257 23.8843 32.1299 23.4748V23.4488C36.7382 25.0088 39.3419 30.2738 39.3715 30.3096L43.9568 38.1583V38.1778L43.2985 38.5613V38.5873L51.7647 40.3976H51.7844L54.2268 32.3571H54.2038L53.5126 32.7503H53.4928L48.5092 24.232C48.1856 23.6787 47.7202 23.2192 47.1597 22.8997C46.5993 22.5802 45.9635 22.412 45.3163 22.412H33.4005C32.7533 22.412 32.1175 22.5802 31.557 22.8997C30.9966 23.2192 30.5311 23.6787 30.2075 24.232L28.0449 27.9306L37.5677 33.3613L38.8416 31.2001Z" fill="white"/>
<path d="M30.5264 47.1966C27.689 52.0716 27.2742 56.1113 27.2347 56.8231H27.2051C26.2176 52.0943 29.5093 47.1868 29.5093 47.1868L34.2493 39.0943H34.269L34.8879 39.4486H34.9109L32.3763 31.4243L23.9793 33.2151V33.2443L24.7232 33.6668V33.6863L19.7561 42.1688C19.4322 42.7227 19.2617 43.3509 19.2617 43.9904C19.2617 44.63 19.4322 45.2582 19.7561 45.8121L25.6745 55.9748C25.9981 56.5282 26.4635 56.9877 27.024 57.3072C27.5845 57.6267 28.2202 57.7948 28.8674 57.7948H35.4014V47.1868H30.5396L30.5264 47.1966Z" fill="white"/>
<path d="M41.8964 42.3249H40.8497V43.6476H39.7865V42.3249H36.5376V41.5774L39.4474 37.8236H40.6193L37.8806 41.3986H39.8293V40.2351H40.8596V41.4084H41.9063L41.8964 42.3249Z" fill="white"/>
</g>
<defs>
<clipPath id="clip0_111_5403">
<rect width="79" height="78" fill="white"/>
</clipPath>
</defs>
</svg>
